<?xml version="1.0" standalone="no"?>
<!DOCTYPE svg PUBLIC "-//W3C//DTD SVG 20010904//EN"
 "http://www.w3.org/TR/2001/REC-SVG-20010904/DTD/svg10.dtd">
<svg version="1.0" xmlns="http://www.w3.org/2000/svg"
 width="256.000000pt" height="256.000000pt" viewBox="0 0 256.000000 256.000000"
 preserveAspectRatio="xMidYMid meet">
<metadata>
Created by potrace 1.14, written by Peter Selinger 2001-2017
</metadata>
<g transform="translate(0.000000,256.000000) scale(0.100000,-0.100000)"
fill="#000000" stroke="none">
<path d="M1165 2545 c-187 -41 -343 -185 -400 -372 -7 -26 7 -25 -216 -25
l-165 0 -129 -386 c-106 -317 -129 -399 -131 -452 -4 -120 20 -177 89 -213
l36 -19 0 -291 -1 -291 -43 -27 c-23 -15 -45 -33 -48 -42 -3 -8 -19 -18 -36
-22 -41 -9 -78 -40 -101 -86 -17 -33 -20 -59 -20 -179 l0 -140 1281 0 1280 0
-3 154 -3 154 -31 39 c-17 21 -49 45 -70 53 -21 8 -53 29 -71 47 -18 17 -41
34 -53 38 -20 6 -20 12 -19 301 1 265 3 296 17 301 72 26 103 83 108 191 3 75
0 86 -129 474 l-131 396 -171 0 c-93 0 -177 1 -186 1 -10 1 -24 22 -37 59 -56
152 -190 278 -349 328 -66 20 -196 25 -268 9z"/>
</g>
</svg>
